<?xml version="1.0" encoding="UTF-8"?>
<svg id="Layer_1" data-name="Layer 1" xmlns="http://www.w3.org/2000/svg" viewBox="0 0 433.64 182.13">
  <defs>
    <style>
      .cls-1 {
        font-family: Anton-Regular, Anton;
        font-size: 61.9px;
      }

      .cls-2, .cls-3 {
        stroke-width: 0px;
      }

      .cls-3 {
        fill: #ffab11;
      }
    </style>
  </defs>
  <text class="cls-1" transform="translate(139.78 114.39)"><tspan x="0" y="0">FLASH ME LK</tspan></text>
  <g>
    <path class="cls-2" d="m43.16,101.63l-.94-.85H11.76c-.91,0-1.32-.59-1.48-.94-.16-.35-.36-1.05.23-1.74L83.54,10.74c.55-.66,1.22-.8,1.99-.41.77.39,1.06,1.01.86,1.85l-13.56,56.18h10.4l12.99-53.81c1.31-5.42-1.16-10.74-6.13-13.24-4.98-2.5-10.72-1.32-14.29,2.96L2.75,91.62c-2.96,3.54-3.58,8.33-1.63,12.5,1.95,4.18,6.03,6.77,10.64,6.77h29.16l2.23-9.26Z"/>
    <path class="cls-3" d="m41.71,182.13c-1.8,0-3.63-.42-5.37-1.3-4.97-2.51-7.44-7.83-6.13-13.24l15.93-66c.14-.58-.05-1.2-.49-1.6l-9.18-8.29c-2.76-2.49-4.16-6.02-3.84-9.68.54-6.14,5.57-10.78,11.71-10.78h70.31c4.61,0,8.68,2.59,10.64,6.77,1.95,4.18,1.33,8.97-1.63,12.5l-73.03,87.36c-2.32,2.78-5.57,4.26-8.92,4.26Zm2.63-100.79c-1.49,0-1.64,1.49-1.65,1.55-.04.51.14.93.55,1.31l9.18,8.29c3.19,2.89,4.55,7.28,3.54,11.47l-15.93,66c-.2.84.08,1.46.85,1.85.78.39,1.44.25,1.99-.41l73.03-87.36c.58-.7.39-1.39.23-1.74-.16-.35-.58-.94-1.48-.94H44.34Z"/>
  </g>
</svg>