<svg width="24" height="25" viewBox="0 0 24 25" fill="none" xmlns="http://www.w3.org/2000/svg">
<path d="M11.525 2.79489C11.5688 2.70635 11.6365 2.63183 11.7204 2.57972C11.8044 2.52761 11.9012 2.5 12 2.5C12.0988 2.5 12.1956 2.52761 12.2795 2.57972C12.3634 2.63183 12.4311 2.70635 12.475 2.79489L14.785 7.47389C14.9371 7.78186 15.1618 8.0483 15.4396 8.25035C15.7174 8.45239 16.0401 8.58401 16.38 8.63389L21.546 9.38989C21.6439 9.40408 21.7358 9.44537 21.8115 9.50909C21.8871 9.57282 21.9434 9.65644 21.974 9.7505C22.0046 9.84456 22.0082 9.9453 21.9846 10.0413C21.9609 10.1374 21.9108 10.2248 21.84 10.2939L18.104 13.9319C17.8576 14.172 17.6732 14.4684 17.5668 14.7955C17.4604 15.1227 17.435 15.4708 17.493 15.8099L18.375 20.9499C18.3922 21.0477 18.3817 21.1485 18.3445 21.2406C18.3073 21.3327 18.2449 21.4125 18.1645 21.4709C18.0841 21.5293 17.9889 21.5639 17.8898 21.5708C17.7907 21.5777 17.6917 21.5566 17.604 21.5099L12.986 19.0819C12.6817 18.9221 12.3431 18.8386 11.9995 18.8386C11.6558 18.8386 11.3173 18.9221 11.013 19.0819L6.39597 21.5099C6.3083 21.5563 6.20937 21.5772 6.11042 21.5701C6.01147 21.5631 5.91649 21.5285 5.83626 21.4701C5.75604 21.4118 5.6938 21.3321 5.65662 21.2401C5.61945 21.1481 5.60883 21.0476 5.62597 20.9499L6.50697 15.8109C6.56516 15.4716 6.53995 15.1233 6.43351 14.7959C6.32706 14.4686 6.14258 14.172 5.89597 13.9319L2.15997 10.2949C2.08856 10.2259 2.03796 10.1383 2.01393 10.042C1.9899 9.94565 1.99341 9.84451 2.02405 9.75008C2.05469 9.65566 2.11124 9.57174 2.18725 9.50788C2.26326 9.44402 2.35567 9.40279 2.45397 9.38889L7.61897 8.63389C7.95923 8.58439 8.28236 8.45295 8.56055 8.25088C8.83875 8.04881 9.06367 7.78216 9.21597 7.47389L11.525 2.79489Z" fill="#FFAB11" stroke="#FFAB11" stroke-width="2" stroke-linecap="round" stroke-linejoin="round"/>
</svg>
